<svg width="573" height="356" viewBox="0 0 573 356" fill="none" xmlns="http://www.w3.org/2000/svg">
<path d="M18.336 179V43.39H62.648C76.9093 43.39 88.7513 46.446 98.174 52.558C107.597 58.5427 114.664 66.692 119.375 77.006C124.214 87.1927 126.633 98.5253 126.633 111.004C126.633 124.756 124.023 136.725 118.802 146.912C113.581 157.099 106.132 164.993 96.455 170.596C86.905 176.199 75.636 179 62.648 179H18.336ZM119.948 111.004C119.948 99.162 117.72 88.5933 113.263 79.298C108.806 70.0027 102.312 62.7447 93.781 57.524C85.377 52.176 74.9993 49.502 62.648 49.502H25.021V172.888H62.648C75.1267 172.888 85.6317 170.214 94.163 164.866C102.694 159.391 109.125 151.942 113.454 142.519C117.783 133.096 119.948 122.591 119.948 111.004Z" fill="white"/>
<path d="M18.336 344V208.39H62.648C76.9093 208.39 88.7513 211.446 98.174 217.558C107.597 223.543 114.664 231.692 119.375 242.006C124.214 252.193 126.633 263.525 126.633 276.004C126.633 289.756 124.023 301.725 118.802 311.912C113.581 322.099 106.132 329.993 96.455 335.596C86.905 341.199 75.636 344 62.648 344H18.336ZM119.948 276.004C119.948 264.162 117.72 253.593 113.263 244.298C108.806 235.003 102.312 227.745 93.781 222.524C85.377 217.176 74.9993 214.502 62.648 214.502H25.021V337.888H62.648C75.1267 337.888 85.6317 335.214 94.163 329.866C102.694 324.391 109.125 316.942 113.454 307.519C117.783 298.096 119.948 287.591 119.948 276.004ZM208.174 344.955C198.751 344.955 190.156 343.045 182.389 339.225C174.621 335.278 167.936 330.057 162.334 323.563C156.731 317.069 152.402 309.747 149.346 301.598C146.29 293.321 144.762 284.854 144.762 276.195C144.762 267.154 146.353 258.559 149.537 250.41C152.72 242.133 157.177 234.812 162.907 228.445C168.764 221.951 175.513 216.858 183.153 213.165C190.92 209.345 199.26 207.435 208.174 207.435C217.596 207.435 226.191 209.409 233.959 213.356C241.726 217.303 248.347 222.588 253.823 229.209C259.425 235.83 263.755 243.216 266.811 251.365C269.867 259.514 271.395 267.791 271.395 276.195C271.395 285.363 269.803 294.085 266.62 302.362C263.436 310.511 258.98 317.833 253.25 324.327C247.52 330.694 240.771 335.723 233.004 339.416C225.364 343.109 217.087 344.955 208.174 344.955ZM151.447 276.195C151.447 284.344 152.847 292.175 155.649 299.688C158.45 307.073 162.334 313.695 167.3 319.552C172.393 325.409 178.378 330.057 185.254 333.495C192.257 336.933 199.897 338.652 208.174 338.652C216.578 338.652 224.281 336.869 231.285 333.304C238.288 329.739 244.273 324.964 249.239 318.979C254.205 312.994 258.025 306.309 260.699 298.924C263.373 291.539 264.71 283.962 264.71 276.195C264.71 268.046 263.309 260.278 260.508 252.893C257.706 245.38 253.759 238.695 248.666 232.838C243.572 226.981 237.524 222.333 230.521 218.895C223.645 215.457 216.196 213.738 208.174 213.738C199.642 213.738 191.875 215.521 184.872 219.086C177.996 222.651 172.075 227.426 167.109 233.411C162.143 239.396 158.259 246.081 155.458 253.466C152.784 260.851 151.447 268.428 151.447 276.195ZM352.356 344.955C342.934 344.955 334.339 343.045 326.571 339.225C318.804 335.278 312.119 330.057 306.516 323.563C300.914 317.069 296.584 309.747 293.528 301.598C290.472 293.321 288.944 284.854 288.944 276.195C288.944 267.154 290.536 258.559 293.719 250.41C296.903 242.133 301.359 234.812 307.089 228.445C312.947 221.951 319.695 216.858 327.335 213.165C335.103 209.345 343.443 207.435 352.356 207.435C361.779 207.435 370.374 209.409 378.141 213.356C385.909 217.303 392.53 222.588 398.005 229.209C403.608 235.83 407.937 243.216 410.993 251.365C414.049 259.514 415.577 267.791 415.577 276.195C415.577 285.363 413.986 294.085 410.802 302.362C407.619 310.511 403.162 317.833 397.432 324.327C391.702 330.694 384.954 335.723 377.186 339.416C369.546 343.109 361.27 344.955 352.356 344.955ZM295.629 276.195C295.629 284.344 297.03 292.175 299.831 299.688C302.633 307.073 306.516 313.695 311.482 319.552C316.576 325.409 322.56 330.057 329.436 333.495C336.44 336.933 344.08 338.652 352.356 338.652C360.76 338.652 368.464 336.869 375.467 333.304C382.471 329.739 388.455 324.964 393.421 318.979C398.387 312.994 402.207 306.309 404.881 298.924C407.555 291.539 408.892 283.962 408.892 276.195C408.892 268.046 407.492 260.278 404.69 252.893C401.889 245.38 397.942 238.695 392.848 232.838C387.755 226.981 381.707 222.333 374.703 218.895C367.827 215.457 360.378 213.738 352.356 213.738C343.825 213.738 336.058 215.521 329.054 219.086C322.178 222.651 316.257 227.426 311.291 233.411C306.325 239.396 302.442 246.081 299.64 253.466C296.966 260.851 295.629 268.428 295.629 276.195ZM442.677 344V208.39H498.449C504.179 208.39 509.399 209.6 514.111 212.019C518.822 214.311 522.897 217.494 526.335 221.569C529.773 225.516 532.447 229.973 534.357 234.939C536.267 239.778 537.222 244.744 537.222 249.837C537.222 256.713 535.821 263.143 533.02 269.128C530.218 275.113 526.335 280.079 521.369 284.026C516.403 287.973 510.609 290.265 503.988 290.902L537.986 344H530.346L496.73 291.666H449.362V344H442.677ZM449.362 285.554H499.595C505.961 285.554 511.437 283.835 516.021 280.397C520.732 276.959 524.361 272.502 526.908 267.027C529.454 261.552 530.728 255.822 530.728 249.837C530.728 243.725 529.263 237.995 526.335 232.647C523.406 227.172 519.459 222.779 514.493 219.468C509.654 216.157 504.242 214.502 498.258 214.502H449.362V285.554Z" fill="white"/>
<rect x="240" y="109" width="8" height="8" fill="white"/>
<rect x="148" y="42" width="113" height="134" rx="27" stroke="white" stroke-width="6"/>
</svg>
